<svg width="184" height="51" viewBox="0 0 184 51" fill="none" xmlns="http://www.w3.org/2000/svg">
<g clip-path="url(#clip0_75_3)">
<mask id="mask0_75_3" style="mask-type:luminance" maskUnits="userSpaceOnUse" x="0" y="0" width="184" height="51">
<path d="M183.793 0.907715H0.972412V50.8979H183.793V0.907715Z" fill="white"/>
</mask>
<g mask="url(#mask0_75_3)">
<path d="M8.47162 0.907715C8.55204 1.42923 8.69858 1.95254 8.70216 2.47405C8.71645 5.18199 8.69143 7.88992 8.68607 10.5979C8.68429 11.9438 8.80938 12.0638 10.1676 12.062C14.3334 12.0567 18.4991 12.062 22.6631 12.0316C23.4959 12.0262 24.1392 12.2646 24.7182 12.8757C26.0085 14.2341 27.3507 15.546 28.6731 16.874C29.4237 17.6285 29.6096 17.632 30.3441 16.8955C31.6683 15.5675 33.0051 14.2538 34.2971 12.8972C34.8744 12.2914 35.5142 12.0298 36.3487 12.0316C41.2579 12.0513 46.1671 12.0567 51.0763 12.0244C52.0467 12.019 52.7991 12.2753 53.3995 13.0621C53.8034 13.5907 54.3056 14.0424 54.7631 14.528C54.8417 14.4976 54.9204 14.4653 55.0008 14.4348C55.0401 14.1033 55.108 13.7718 55.1134 13.4402C55.1348 12.0477 55.1277 12.0459 56.5556 12.0477C57.5367 12.0477 58.5196 12.0244 59.5007 12.0656C60.3389 12.1015 60.6838 11.7807 60.6695 10.9222C60.632 8.75016 60.6749 6.57807 60.6391 4.40599C60.6266 3.66762 60.8947 3.39522 61.6256 3.40597C63.5289 3.43285 65.4339 3.43106 67.3372 3.40776C68.036 3.3988 68.2844 3.6963 68.2754 4.37373C68.2486 6.48667 68.2522 8.59961 68.2468 10.7126C68.2433 11.924 68.3737 12.0585 69.5586 12.0567C71.0455 12.0549 72.5341 12.0674 74.021 12.037C74.718 12.0226 74.9753 12.3237 74.9664 13.0011C74.9414 14.8453 74.9324 16.6912 74.9539 18.5353C74.9628 19.288 74.6912 19.6124 73.9066 19.5909C72.3608 19.5496 70.8114 19.5962 69.2655 19.5622C68.5274 19.5461 68.2415 19.8704 68.2451 20.5712C68.2558 23.7845 68.2326 26.9996 68.2719 30.2129C68.2879 31.4961 69.1011 32.2183 70.3842 32.2183C72.3769 32.2201 74.3713 32.1771 76.3639 32.2183C77.1699 32.2363 77.4272 32.0033 77.4237 31.1663C77.3879 25.2146 77.404 19.2629 77.4058 13.3112C77.4058 11.9922 77.4129 11.985 78.7676 11.9868C85.3137 11.9904 91.8581 12.0047 98.4043 11.9868C99.1799 11.985 99.7571 12.2233 100.292 12.7807C101.609 14.1553 102.958 15.4994 104.327 16.822C104.861 17.3381 105.081 17.8955 105.072 18.6374C105.04 21.435 105.058 24.2325 105.056 27.0301C105.056 27.3527 105.056 27.6752 105.249 28.1287C106.075 27.3078 107.009 26.5677 107.703 25.6483C109.023 23.8974 110.727 23.3633 112.842 23.4117C117.362 23.5157 121.885 23.4673 126.407 23.5228C127.284 23.5336 127.616 23.1752 127.729 22.3579C128.17 19.1625 125.166 16.0639 122.402 16.1947C117.325 16.4331 112.229 16.2772 107.142 16.2808C105.959 16.2808 105.955 16.2664 105.976 15.0782C105.987 14.4528 105.985 13.8291 105.98 13.2036C105.973 12.402 106.383 12.0005 107.211 11.9993C110.156 11.9993 113.102 12.0083 116.049 12.0083C119.142 12.0083 122.237 12.0208 125.331 11.9868C126.069 11.9796 126.625 12.1767 127.143 12.7216C128.433 14.08 129.795 15.3721 131.089 16.727C131.58 17.2414 131.925 17.2163 132.404 16.718C133.723 15.3453 135.049 13.9743 136.443 12.6803C136.834 12.3165 137.471 12.0334 137.998 12.028C144.067 11.9796 150.136 12.0029 156.207 11.9724C157.063 11.9689 157.399 12.2448 157.311 13.1176C157.243 13.7951 157.245 14.4904 157.311 15.1678C157.397 16.0496 157.041 16.3023 156.192 16.2969C150.926 16.2646 145.659 16.2897 140.394 16.2521C139.424 16.2449 138.675 16.503 138.048 17.2557C137.553 17.8471 136.949 18.3435 136.422 18.9081C135.698 19.6823 135.767 20.2737 136.377 21.1142C137.883 23.1931 139.733 24.0623 142.41 23.8078C145.536 23.5121 148.712 23.7038 151.864 23.7612C152.395 23.7701 153.036 24.0443 153.428 24.4082C154.906 25.7863 156.341 27.2182 157.708 28.7075C158.085 29.1179 158.224 29.7828 158.374 30.3563C158.469 30.7165 158.321 31.1359 158.385 31.5104C158.718 33.437 158.01 34.8653 156.509 36.0804C155.406 36.9747 154.518 38.1306 153.449 39.0733C153.024 39.4479 152.372 39.7633 151.821 39.7651C138.194 39.8009 124.568 39.7866 110.941 39.8009C110.198 39.8009 109.644 39.5805 109.131 39.0446C107.899 37.7543 106.604 36.5231 105.372 35.2309C104.852 34.6861 104.486 34.7202 103.984 35.2489C102.797 36.4998 101.543 37.688 100.359 38.9443C99.7839 39.5572 99.1477 39.8081 98.3114 39.8027C93.2824 39.774 88.2553 39.7812 83.2264 39.7776C81.7181 39.7776 81.702 39.792 81.7074 41.344C81.7163 44.1702 81.7074 46.9982 81.7502 49.8244C81.7628 50.6345 81.5072 50.9642 80.6655 50.8853C79.9274 50.8155 79.175 50.8244 78.4369 50.8853C77.6524 50.9481 77.3879 50.656 77.3951 49.8746C77.4254 46.8691 77.3754 43.8637 77.4254 40.8583C77.4397 39.9963 77.1913 39.74 76.3299 39.7543C73.4741 39.7973 70.6183 39.7418 67.7625 39.7669C66.6796 39.7758 65.8271 39.4443 65.0765 38.636C63.9042 37.3708 62.6639 36.1682 61.4237 34.9693C60.8715 34.4352 60.632 33.8438 60.6373 33.0696C60.6659 29.0516 60.6588 25.0354 60.6606 21.0174C60.6606 19.7557 60.5087 19.5658 59.5365 19.5622C58.1622 19.5568 57.946 19.7468 57.9388 21.064C57.9263 23.3562 57.912 25.6465 57.9442 27.9387C57.9549 28.6735 57.7011 28.9136 56.963 28.91C50.7153 28.8831 44.4676 28.8921 38.2199 28.8849C37.2959 28.8849 36.8188 29.8993 37.3138 30.9226C37.757 31.8384 38.5111 32.256 39.5459 32.2488C43.801 32.2255 48.0543 32.2309 52.3094 32.2237C53.3209 32.2237 54.3324 32.2398 55.3439 32.213C56.023 32.195 56.3054 32.4495 56.2929 33.1556C56.2607 34.9998 56.2411 36.8475 56.3 38.6898C56.3268 39.55 55.9766 39.7758 55.201 39.7615C53.3567 39.7256 51.5124 39.7256 49.6681 39.7274C45.1449 39.7292 40.6235 39.7615 36.1021 39.7185C35.5731 39.7131 34.9351 39.4317 34.5438 39.0679C33.1087 37.731 31.7559 36.3026 30.3709 34.9119C29.6542 34.1933 29.3951 34.1951 28.6785 34.9066C27.222 36.3528 25.7816 37.817 24.2983 39.2364C24.0266 39.4963 23.5906 39.7256 23.2278 39.7274C16.2366 39.7579 9.24544 39.7543 2.25248 39.7543C1.03725 39.7543 1.03725 39.7489 1.03725 38.4873C1.03725 26.3455 1.03725 14.2037 1.03546 2.06186C1.03546 1.67834 0.997929 1.29303 0.978271 0.909507H8.47698L8.47162 0.907715ZM81.7002 25.8365H81.6966C81.6966 28.5731 81.7002 31.3115 81.6966 34.0481C81.6948 35.3922 81.8289 35.532 83.1656 35.532C86.8256 35.5284 90.4928 35.3636 94.1403 35.5804C96.5564 35.7238 98.424 35.2524 99.8805 33.2255C100.361 32.5571 100.679 31.971 100.67 31.1484C100.638 28.4118 100.424 25.6483 100.715 22.9422C100.994 20.34 100.377 18.3722 98.1934 16.9582C97.7002 16.6392 97.0979 16.3059 96.5421 16.3005C91.9904 16.2485 87.4386 16.2682 82.8868 16.2718C81.8182 16.2718 81.7074 16.3847 81.7056 17.4457C81.7002 20.2432 81.7056 23.0407 81.7056 25.8365H81.7002ZM132.04 23.2916C132.023 23.5874 131.995 23.8723 131.995 24.1573C131.99 27.5749 132.011 30.9943 131.966 34.4119C131.956 35.2793 132.243 35.5302 133.094 35.5266C137.848 35.5033 142.607 35.4066 147.355 35.5912C150.064 35.6951 152.111 34.842 153.61 32.6574C153.857 32.299 154.053 31.5373 153.862 31.3097C152.933 30.2093 151.873 29.2165 150.831 28.2147C150.686 28.0749 150.381 28.0552 150.15 28.057C146.644 28.0677 143.134 27.9996 139.635 28.1484C137.846 28.2254 136.495 27.7792 135.319 26.4028C134.365 25.2863 133.185 24.3616 132.04 23.2916ZM8.69501 25.8974C8.69501 27.6233 8.71467 29.3491 8.68607 31.0749C8.67178 31.8832 8.91482 32.256 9.81195 32.2434C13.1145 32.1986 16.4171 32.2273 19.7197 32.2165C21.0225 32.213 21.7731 31.4925 21.7838 30.1789C21.807 27.3222 21.807 24.4655 21.7838 21.6088C21.7731 20.2808 21.0404 19.5855 19.7215 19.5819C16.4189 19.5729 13.1163 19.6016 9.81374 19.5568C8.92197 19.5443 8.67178 19.9045 8.68786 20.7199C8.72003 22.4458 8.6968 24.1716 8.69858 25.8974H8.69501ZM119.685 35.5231C121.887 35.5231 124.087 35.5231 126.289 35.5231C127.575 35.5231 127.608 35.4926 127.606 34.247C127.602 32.4925 127.604 30.7362 127.606 28.9817C127.608 27.8079 127.574 27.7756 126.417 27.7774C122.67 27.7828 118.899 28.0373 115.182 27.7021C112.505 27.462 110.732 28.3097 109.231 30.3384C108.487 31.342 108.418 31.9961 109.279 32.9352C109.822 33.5266 110.45 34.0427 110.961 34.6575C111.533 35.3456 112.221 35.5499 113.082 35.5356C115.282 35.4998 117.484 35.5231 119.685 35.5231ZM43.7492 22.573C45.5899 22.573 47.4306 22.564 49.2713 22.5766C50.0076 22.582 50.4526 22.3633 50.4526 21.5138C50.4526 19.8884 49.6591 19.046 48.0043 19.0407C45.1842 19.0299 42.3642 19.0353 39.5441 19.0335C37.9786 19.0335 37.2494 19.7396 37.1994 21.2952C37.1672 22.3436 37.3728 22.5676 38.4057 22.5694C40.1875 22.573 41.9674 22.5694 43.7492 22.573Z" fill="#0B0B0B"/>
<path d="M183.794 33.5875C182.604 35.9263 180.363 37.3188 178.659 39.1952C178.195 39.7077 177.14 39.8708 176.354 39.8726C170.437 39.8923 164.518 39.8296 158.601 39.7973C157.321 39.7901 157.328 39.8027 157.357 38.5016C157.371 37.8475 157.412 37.1862 157.341 36.5392C157.255 35.7596 157.505 35.4872 158.31 35.4944C162.354 35.5284 166.4 35.5123 170.444 35.5141C171.961 35.5141 173.479 35.5123 174.994 35.532C175.754 35.5428 176.368 35.3116 176.887 34.7273C177.478 34.0606 178.152 33.4692 178.758 32.8151C179.405 32.1162 179.399 31.4728 178.799 30.7506C178.761 30.7057 178.713 30.6663 178.679 30.6179C177.248 28.4853 175.343 27.7541 172.724 27.9853C169.567 28.263 166.364 28.082 163.183 28.0337C162.704 28.0265 162.122 27.7774 161.771 27.4458C160.238 25.996 158.767 24.478 157.287 22.9708C157.087 22.7665 156.853 22.4959 156.826 22.2361C156.564 19.7342 156.208 17.236 158.76 15.4779C159.695 14.8327 160.401 13.8506 161.196 13.0083C161.982 12.1767 162.935 11.8326 164.075 11.8452C169.693 11.9061 175.314 11.9437 180.933 11.9814C182.527 11.9921 182.521 11.9778 182.491 13.5334C182.48 14.0979 182.444 14.6696 182.512 15.227C182.616 16.0836 182.243 16.2987 181.447 16.2933C177.373 16.2628 173.298 16.2754 169.223 16.2718C167.944 16.2718 166.666 16.261 165.387 16.2718C165.063 16.2754 164.629 16.2216 164.436 16.4008C163.315 17.4421 162.231 18.5263 161.192 19.65C161.047 19.8077 161.181 20.2665 161.258 20.5676C161.307 20.7539 161.498 20.8991 161.614 21.0712C163.083 23.2379 165.006 24.0587 167.706 23.8078C170.832 23.5174 174.006 23.7092 177.158 23.763C177.664 23.7719 178.273 24.0318 178.643 24.3795C180.141 25.7809 181.524 27.3042 183.029 28.6967C183.783 29.3939 183.502 30.3043 183.788 31.0839V33.5839L183.794 33.5875Z" fill="#0B0B0B"/>
</g>
</g>
<defs>
<clipPath id="clip0_75_3">
<rect width="184" height="51" fill="white"/>
</clipPath>
</defs>
</svg>
