<svg width="700" height="720" viewBox="0 0 700 720" fill="none" xmlns="http://www.w3.org/2000/svg">
<g clip-path="url(#clip0_84_11)">
<g filter="url(#filter0_i_84_11)">
<path d="M17.775 654.205L16.8184 651.299C16.8184 651.299 17.0671 652.373 17.775 654.205Z" fill="#3055DC"/>
<path d="M17.3349 654.372C16.627 652.539 16.3783 651.466 16.3591 651.41L17.2775 651.169L18.2342 654.076L17.3349 654.372Z" fill="#3055DC"/>
<path d="M379.705 543.147C379.207 541.296 378.767 540.296 378.767 540.296L379.705 543.147Z" fill="#3055DC"/>
<path d="M379.246 543.296L378.308 540.445L379.207 540.13C379.207 540.13 379.666 541.185 380.164 543.036L379.246 543.296Z" fill="#3055DC"/>
<path d="M187.509 564.4C101.389 590.818 19.1144 657.723 17.775 654.206L28.5855 687.177C40.7544 724.332 131.658 729.608 231.592 698.951C331.546 668.294 402.703 613.33 390.515 576.174L379.705 543.147C380.661 546.683 273.169 538.13 187.509 564.4Z" fill="#3055DC"/>
<path d="M111.701 719.297C67.1012 719.297 35.0334 708.393 28.1262 687.325L17.3158 654.354L18.2151 654.057C18.1768 653.946 18.062 653.891 18.0237 653.891H18.062C19.2291 653.891 26.2512 649.189 35.11 643.246C64.1738 623.752 124.674 583.209 187.355 563.974C249.807 544.813 323.605 544.165 359.079 543.851C369.908 543.758 378.48 543.684 379.303 543.036C379.265 543.073 379.207 543.166 379.246 543.295L380.164 543.036L390.974 576.063C396.925 594.224 383.589 617.069 353.396 640.395C323.337 663.629 280.134 684.585 231.726 699.432C188.121 712.799 146.142 719.315 111.682 719.334L111.701 719.297ZM18.4447 654.724L29.0255 687.047C41.0988 723.906 131.906 729.053 231.439 698.525C279.732 683.715 322.821 662.814 352.803 639.655C382.651 616.588 395.892 594.094 390.056 576.322L379.456 543.943C377.657 544.554 371.994 544.647 359.098 544.758C323.682 545.073 249.979 545.72 187.662 564.844C125.114 584.023 64.7095 624.53 35.6648 643.987C25.0075 651.132 20.3006 654.243 18.4447 654.724Z" fill="#3055DC"/>
<path d="M219.853 663.051C319.798 632.394 390.951 577.423 378.777 540.27C366.604 503.117 275.714 497.852 175.769 528.509C75.8241 559.166 4.67107 614.137 16.8444 651.29C29.0178 688.443 119.908 693.709 219.853 663.051Z" fill="#131313"/>
<path d="M177.004 550.015L177.196 549.96C190.474 569.01 236.873 573.212 288.878 560.105L288.935 560.253C238.614 578.525 203.198 607.831 203.676 630.787L203.485 630.842C190.226 611.83 143.98 607.609 92.0706 620.642L92.0132 620.457C142.2 602.185 177.483 572.934 177.004 550.015Z" fill="#3055DC"/>
</g>
<g filter="url(#filter1_i_84_11)">
<path d="M0.784381 505.437V502.401C0.784381 502.401 0.707847 503.493 0.784381 505.437Z" fill="#3055DC"/>
<path d="M0.306044 505.455C0.22951 503.512 0.325177 502.401 0.325177 502.364L1.28185 502.401V505.437H0.306044V505.455Z" fill="#3055DC"/>
<path d="M380.47 508.528C380.585 506.621 380.489 505.547 380.489 505.547V508.528H380.47Z" fill="#3055DC"/>
<path d="M380.948 508.547L379.992 508.51V505.529L380.967 505.492C380.967 505.529 381.063 506.622 380.948 508.547Z" fill="#3055DC"/>
<path d="M190.933 471.021C100.604 470.281 0.918412 509.176 0.784478 505.437L0.478341 540.019C0.133938 578.988 84.8572 611.293 189.69 612.163C294.541 613.033 379.8 582.135 380.145 543.147L380.451 508.51C380.221 512.157 280.784 471.743 190.933 471.003V471.021Z" fill="#3055DC"/>
<path d="M193.956 612.663C192.541 612.663 191.125 612.663 189.69 612.663C84.7423 611.774 -0.34446 579.192 -5.67858e-05 540.037L0.30608 505.455H1.26276C1.26276 505.326 1.16709 505.233 1.12882 505.215C2.0855 505.622 10.3512 503.234 20.7789 500.216C54.2243 490.552 123.335 470.559 188.35 470.559C189.211 470.559 190.072 470.559 190.933 470.559C256.447 471.095 326.82 492.626 360.629 502.975C370.961 506.14 379.131 508.621 380.107 508.269C380.068 508.269 379.973 508.362 379.953 508.491L380.91 508.528L380.604 543.166C380.26 581.802 296.895 612.644 193.918 612.644L193.956 612.663ZM1.26276 506.14L0.956619 540.037C0.612216 578.692 85.2781 610.849 189.709 611.719C191.144 611.719 192.56 611.719 193.976 611.719C296.436 611.719 379.341 581.284 379.686 543.147L379.992 509.195C379.992 509.195 379.934 509.195 379.915 509.195C377.925 509.195 372.491 507.566 360.38 503.863C326.609 493.533 256.332 472.021 190.972 471.484C190.111 471.484 189.25 471.484 188.389 471.484C123.507 471.484 54.4922 491.441 21.0851 501.105C8.6483 504.696 3.17611 506.288 1.28189 506.14H1.26276Z" fill="#3055DC"/>
<path d="M380.506 505.567C380.85 466.593 296.137 434.296 191.293 433.428C86.45 432.56 1.17833 463.452 0.833841 502.425C0.489349 541.399 85.2025 573.697 190.046 574.565C294.889 575.432 380.161 544.541 380.506 505.567Z" fill="#131313"/>
<path d="M197.975 461.376C175.263 461.191 156.244 467.541 151.404 476.205C151.404 476.242 151.384 476.26 151.365 476.279C151.193 476.612 151.059 476.945 150.906 477.279C145.262 490.126 119.967 499.957 88.0525 501.493C119.929 503.567 145.051 513.804 150.466 526.745C150.6 527.078 150.734 527.411 150.906 527.744C150.906 527.763 150.925 527.8 150.944 527.818C155.632 536.557 174.536 543.221 197.248 543.425C223.537 543.647 244.928 535.094 245.024 524.338C245.062 520.395 242.192 516.692 237.294 513.582C252.371 517.896 263.813 523.116 265.669 528.781C270.605 514.619 270.797 491.385 266.128 477.13C264.177 482.758 252.62 487.794 237.485 491.867C242.441 488.831 245.368 485.202 245.407 481.24C245.502 470.484 224.264 461.58 197.975 461.376Z" fill="#3055DC"/>
</g>
<g filter="url(#filter2_i_84_11)">
<path d="M27.1697 370.959L28.0498 368.053C28.0498 368.053 27.6289 369.089 27.1697 370.959Z" fill="#3055DC"/>
<path d="M27.6289 371.107L26.7104 370.867C27.1888 368.978 27.5906 367.942 27.6097 367.886L28.509 368.182L27.6289 371.107Z" fill="#3055DC"/>
<path d="M391.453 474.594C392.103 472.798 392.333 471.725 392.333 471.725L391.453 474.594Z" fill="#3055DC"/>
<path d="M391.893 474.742L390.974 474.465L391.855 471.595L392.792 471.817C392.792 471.817 392.562 472.928 391.893 474.742Z" fill="#3055DC"/>
<path d="M219.806 388.268C133.131 363.609 26.2703 374.587 27.1696 370.959L17.0862 404.152C5.72087 441.548 78.0456 495.069 178.631 523.69C279.215 552.311 369.985 545.202 381.35 507.806L391.453 474.575C390.19 478.019 306.002 412.798 219.806 388.268Z" fill="#3055DC"/>
<path d="M293.279 541.74C258.934 541.74 218.983 535.668 178.497 524.153C77.8161 495.495 5.20433 441.623 16.627 404.042L26.7104 370.848L27.6288 371.089C27.6479 370.978 27.6097 370.867 27.5714 370.848C28.3942 371.496 37.0042 371.385 47.8912 371.255C83.2691 370.811 156.838 369.904 219.921 387.843C282.774 405.726 344.365 445.103 373.946 464.023C382.9 469.744 389.979 474.279 391.147 474.279C391.147 474.279 391.166 474.279 391.185 474.279C391.128 474.279 391.032 474.335 390.994 474.464L391.912 474.742L381.809 507.973C376.242 526.263 351.98 537.982 313.484 540.999C307.017 541.499 300.262 541.758 293.279 541.758V541.74ZM27.4375 371.755L17.5454 404.282C6.2758 441.382 78.6005 494.736 178.765 523.246C227.364 537.075 275.178 543.036 313.407 540.055C351.483 537.075 375.457 525.578 380.891 507.695L390.802 475.112C388.946 474.65 384.201 471.669 373.448 464.782C343.887 445.881 282.411 406.578 219.672 388.732C156.723 370.811 83.2308 371.718 47.9104 372.181C34.9378 372.329 29.2552 372.385 27.4375 371.774V371.755Z" fill="#3055DC"/>
<path d="M392.31 471.727C403.676 434.336 331.349 380.819 230.763 352.193C130.176 323.568 39.42 330.674 28.0535 368.065C16.6869 405.457 89.0141 458.974 189.601 487.599C290.187 516.225 380.943 509.119 392.31 471.727Z" fill="#131313"/>
<path d="M231.879 374.662L232.07 374.718C232.07 397.692 268.118 426.276 318.822 443.53L318.784 443.678C266.492 431.608 220.208 436.754 207.331 456.063L207.14 456.007C207.14 433.07 171.207 404.56 120.637 387.306L120.694 387.121C172.871 399.099 219.021 393.934 231.86 374.662H231.879Z" fill="#3055DC"/>
</g>
<g filter="url(#filter3_i_84_11)">
<path d="M279.101 306.554C203.791 258.291 98.3081 238.335 100.279 235.132L80.5331 263.975C58.2808 296.465 111.128 368.22 198.53 424.24C285.951 480.26 374.845 499.328 397.097 466.838L416.862 437.958C414.624 440.902 354.009 354.577 279.082 306.573L279.101 306.554Z" fill="#3055DC"/>
<path d="M355.731 483.166C345.839 483.166 334.588 481.852 322.151 479.168C284.592 471.115 240.604 451.732 198.281 424.61C110.783 368.535 57.7833 296.354 80.1504 263.697L99.8962 234.854L100.7 235.354C100.757 235.261 100.738 235.132 100.7 235.095C101.293 235.946 109.539 238.297 119.986 241.278C153.91 250.942 224.532 271.028 279.349 306.165C333.976 341.173 380.834 396.341 403.354 422.852C410.242 430.96 415.676 437.347 416.709 437.569C416.652 437.569 416.537 437.569 416.46 437.68L417.245 438.217L397.48 467.097C390.19 477.742 375.782 483.185 355.711 483.185L355.731 483.166ZM100.279 235.946L80.9348 264.215C58.8739 296.446 111.74 368.054 198.797 423.851C241.025 450.917 284.917 470.244 322.362 478.279C359.653 486.277 386.057 482.13 396.695 466.579L416.078 438.254C414.451 437.292 410.816 433.071 402.627 423.426C380.126 396.952 333.325 341.858 278.833 306.924C224.13 271.861 153.623 251.812 119.738 242.167C107.301 238.631 101.848 237.039 100.298 235.946H100.279Z" fill="#3055DC"/>
<path d="M418.563 435.476C440.808 402.983 387.981 331.227 300.57 275.206C213.16 219.185 124.267 200.112 102.022 232.605C79.777 265.098 132.604 336.854 220.015 392.875C307.425 448.896 396.318 467.969 418.563 435.476Z" fill="#131313"/>
<path d="M293.527 305.813C274.585 293.687 255.069 288.985 246.134 293.687C246.115 293.687 246.076 293.724 246.057 293.743C245.713 293.928 245.426 294.132 245.12 294.335C233.142 302.129 206.413 297.038 178.784 281.506C204.346 300.056 219.634 321.901 216.879 335.6C216.802 335.952 216.725 336.304 216.668 336.674C216.668 336.711 216.668 336.73 216.668 336.767C215.673 346.56 227.765 362.129 246.689 374.255C268.616 388.306 291.365 392.416 297.507 383.456C299.765 380.161 299.44 375.569 297.086 370.367C307.284 381.938 313.943 392.361 312.317 398.081C324.428 388.806 337.688 369.423 341.801 355.02C336.999 358.704 324.485 356.834 309.485 352.262C315.359 352.336 319.855 350.818 322.113 347.541C328.255 338.581 315.454 319.92 293.527 305.869V305.813Z" fill="#3055DC"/>
</g>
<g filter="url(#filter4_i_84_11)">
<path d="M494.142 67.2201C577.086 32.5826 684.54 30.972 683.182 27.4546L697.34 59.2041C713.298 94.9893 648.206 156.6 551.945 196.81C455.684 237.02 364.704 240.593 348.728 204.807L334.531 173.002C336.214 176.279 411.619 101.672 494.104 67.2201H494.142Z" fill="#3055DC"/>
<path d="M411.887 229.707C378.078 229.707 355.711 221.006 348.517 204.9L334.32 173.095L334.76 172.891C334.76 172.891 334.798 172.891 334.818 172.891C335.832 172.891 342.433 167.448 350.737 160.617C377.734 138.383 433.91 92.1011 494.028 66.9977C554.375 41.8018 627.503 34.082 662.651 30.3794C673.768 29.2131 682.569 28.2875 682.933 27.5099L683.373 27.3618L697.551 59.1113C705.319 76.5133 694.432 100.45 666.88 126.516C639.404 152.527 598.611 177.556 552.021 197.013C505.431 216.47 458.631 228.022 420.21 229.522C417.36 229.633 414.566 229.688 411.849 229.688L411.887 229.707ZM334.951 173.317L348.957 204.715C364.838 240.333 455.856 236.686 551.849 196.587C647.842 156.489 713.011 94.9151 697.111 59.2964L683.124 27.9542C681.842 28.7873 675.892 29.4538 662.709 30.8422C627.58 34.5448 554.49 42.2461 494.219 67.4235C434.159 92.5084 378.021 138.753 351.043 160.969C340.998 169.244 336.444 172.965 334.932 173.298L334.951 173.317Z" fill="#3055DC"/>
<path d="M536.538 162.249C632.798 122.041 697.89 60.4383 681.925 24.6551C665.959 -11.128 574.982 -7.54118 478.721 32.6666C382.461 72.8744 317.369 134.477 333.335 170.26C349.301 206.044 440.278 202.457 536.538 162.249Z" fill="#131313"/>
<path d="M523.876 133.311L523.685 133.385C508.493 115.724 461.902 116.038 411.505 134.144L411.447 133.996C459.625 110.929 491.827 78.3461 488.957 55.5384L489.149 55.4643C504.302 73.0885 550.778 72.8108 601.061 54.7979L601.137 54.9645C553.093 78.0129 521.025 110.558 523.876 133.311Z" fill="#3055DC"/>
</g>
</g>
<defs>
<filter id="filter0_i_84_11" x="15.4885" y="508.561" width="376.872" height="210.772" filterUnits="userSpaceOnUse" color-interpolation-filters="sRGB">
<feFlood flood-opacity="0" result="BackgroundImageFix"/>
<feBlend mode="normal" in="SourceGraphic" in2="BackgroundImageFix" result="shape"/>
<feColorMatrix in="SourceAlpha" type="matrix" values="0 0 0 0 0 0 0 0 0 0 0 0 0 0 0 0 0 0 127 0" result="hardAlpha"/>
<feOffset/>
<feGaussianBlur stdDeviation="26"/>
<feComposite in2="hardAlpha" operator="arithmetic" k2="-1" k3="1"/>
<feColorMatrix type="matrix" values="0 0 0 0 0.180392 0 0 0 0 0.317647 0 0 0 0 0.823529 0 0 0 0.2 0"/>
<feBlend mode="plus-darker" in2="shape" result="effect1_innerShadow_84_11"/>
</filter>
<filter id="filter1_i_84_11" x="-0.00109863" y="433.41" width="381.006" height="183.253" filterUnits="userSpaceOnUse" color-interpolation-filters="sRGB">
<feFlood flood-opacity="0" result="BackgroundImageFix"/>
<feBlend mode="normal" in="SourceGraphic" in2="BackgroundImageFix" result="shape"/>
<feColorMatrix in="SourceAlpha" type="matrix" values="0 0 0 0 0 0 0 0 0 0 0 0 0 0 0 0 0 0 127 0" result="hardAlpha"/>
<feOffset dy="4"/>
<feGaussianBlur stdDeviation="26"/>
<feComposite in2="hardAlpha" operator="arithmetic" k2="-1" k3="1"/>
<feColorMatrix type="matrix" values="0 0 0 0 0.180392 0 0 0 0 0.317647 0 0 0 0 0.823529 0 0 0 0.2 0"/>
<feBlend mode="multiply" in2="shape" result="effect1_innerShadow_84_11"/>
</filter>
<filter id="filter2_i_84_11" x="15.4443" y="334.627" width="378.041" height="211.131" filterUnits="userSpaceOnUse" color-interpolation-filters="sRGB">
<feFlood flood-opacity="0" result="BackgroundImageFix"/>
<feBlend mode="normal" in="SourceGraphic" in2="BackgroundImageFix" result="shape"/>
<feColorMatrix in="SourceAlpha" type="matrix" values="0 0 0 0 0 0 0 0 0 0 0 0 0 0 0 0 0 0 127 0" result="hardAlpha"/>
<feOffset dy="4"/>
<feGaussianBlur stdDeviation="26"/>
<feComposite in2="hardAlpha" operator="arithmetic" k2="-1" k3="1"/>
<feColorMatrix type="matrix" values="0 0 0 0 0.180392 0 0 0 0 0.317647 0 0 0 0 0.823529 0 0 0 0.2 0"/>
<feBlend mode="plus-darker" in2="shape" result="effect1_innerShadow_84_11"/>
</filter>
<filter id="filter3_i_84_11" x="75.0295" y="216.758" width="348.617" height="270.427" filterUnits="userSpaceOnUse" color-interpolation-filters="sRGB">
<feFlood flood-opacity="0" result="BackgroundImageFix"/>
<feBlend mode="normal" in="SourceGraphic" in2="BackgroundImageFix" result="shape"/>
<feColorMatrix in="SourceAlpha" type="matrix" values="0 0 0 0 0 0 0 0 0 0 0 0 0 0 0 0 0 0 127 0" result="hardAlpha"/>
<feOffset dy="4"/>
<feGaussianBlur stdDeviation="26"/>
<feComposite in2="hardAlpha" operator="arithmetic" k2="-1" k3="1"/>
<feColorMatrix type="matrix" values="0 0 0 0 0.180392 0 0 0 0 0.317647 0 0 0 0 0.823529 0 0 0 0.6 0"/>
<feBlend mode="plus-lighter" in2="shape" result="effect1_innerShadow_84_11"/>
</filter>
<filter id="filter4_i_84_11" x="330.926" y="-0.00146484" width="369.069" height="233.708" filterUnits="userSpaceOnUse" color-interpolation-filters="sRGB">
<feFlood flood-opacity="0" result="BackgroundImageFix"/>
<feBlend mode="normal" in="SourceGraphic" in2="BackgroundImageFix" result="shape"/>
<feColorMatrix in="SourceAlpha" type="matrix" values="0 0 0 0 0 0 0 0 0 0 0 0 0 0 0 0 0 0 127 0" result="hardAlpha"/>
<feOffset dy="4"/>
<feGaussianBlur stdDeviation="26"/>
<feComposite in2="hardAlpha" operator="arithmetic" k2="-1" k3="1"/>
<feColorMatrix type="matrix" values="0 0 0 0 0.180392 0 0 0 0 0.317647 0 0 0 0 0.823529 0 0 0 0.6 0"/>
<feBlend mode="normal" in2="shape" result="effect1_innerShadow_84_11"/>
</filter>
<clipPath id="clip0_84_11">
<rect width="700" height="719.297" fill="white"/>
</clipPath>
</defs>
</svg>
