<?xml version="1.0" encoding="UTF-8"?>
<svg id="Layer_1" data-name="Layer 1" xmlns="http://www.w3.org/2000/svg" viewBox="0 0 1460 171.68">
  <defs>
    <style>
      .cls-1 {
        fill: #232323;
        stroke-width: 0px;
      }
    </style>
  </defs>
  <polyline class="cls-1" points="489.88 169.18 357.36 169.18 384.74 165.6"/>
  <path class="cls-1" d="m270.57,167.72s9.41,1.46,14.17,1.46,21.15-1.24,21.15-1.24l.83.98.22.25-1.85-2.1-1.3-1.47-10.71-1.19,11.91,2.38"/>
  <path class="cls-1" d="m306.69,169.18h.25-21.92s-2.66-2.38-2.66-3.57,9.52-2.38,9.52-2.38l9.52,2.38,3.86,1.72,1.45,1.6-26.47.25h-7.42c-3.57,0-10.79-6.45-10.79-6.45l.08-9.03"/>
  <path class="cls-1" d="m161.8,169.18h30.15s3.51-3.57,3.51-7.14.23-13.96.23-13.96l-6.18-1.52h-15.48l-12.42,4.6.03,7.8.03,10.22"/>
  <g>
    <g>
      <path class="cls-1" d="m533.67,1.7c-43.7-.46-87.39-.1-131.09-.12-8.72,0-17.54-.73-25.6,4.09,48.1,4.26,72.34,26.94,78.43,66.86,3.43,22.65-.93,45.13-16.25,63.84-15.27,18.58-37.73,23.82-60.67,29.25.01,0,.03.01.05.02l-10.76,2.07,50.22.6c32.12.85,71.88.86,71.88.86,4.63-8.16,2.22-17.05,2.22-25.55,0-7.65,2.39-10.47,10.45-10.57,14.35-.15,28.59.34,43.09-1.78,33.98-4.97,54.61-33.83,55.73-61.3,1.49-35.93-26.35-67.86-67.69-68.27Zm30.57,73.43c-3.85,11.67-11.89,21.41-25.96,22.07-13.32.63-26.69-.05-40.02.24-4.92.1-6.21-1.7-6.04-6.21.29-7.55.1-15.13.07-22.7,0-31.03,0-30.88,31.71-31.1,11.72-.07,22.75.78,32.15,8.91,9.23,8.04,11.5,18.51,8.09,28.79Z"/>
      <path class="cls-1" d="m1445.69.87c-39.29.37-78.58.39-117.87-.03-9.2-.1-11.73,2.95-11.66,11.73.36,48.27.2,96.54.13,144.81,0,3.98,0,7.83,2.48,11.22h136.12c6.34-3.08,4.88-8.83,4.84-14-.2-24.92,3.17-21.77-21.6-21.89-21.87-.1-43.75-.02-65.62-.02-20.1,0-19.75,0-19.87-20.11-.05-8.15,2.23-11.54,11-11.17,13.75.59,27.54.31,41.31.12,26.36-.35,22.77,4.68,23.32-23.9.14-7.34-2.62-9.88-9.95-9.69-14.57.38-29.16.2-43.74.09-24.64-.18-21.14,3.33-21.98-21.75-.28-8.31,2.73-9.64,10.2-9.51,25.11.42,50.23.16,75.34.16,21.67,0,21.1-.02,21.87-21.8.39-10.97-3.63-14.35-14.29-14.25Z"/>
      <path class="cls-1" d="m1077.99,136.6c-.18-.52-.41-.98-.71-1.39-1.49-2.1-4.48-2.85-9.37-2.75-28.34.62-56.71-.28-85.04.48-11.17.3-14.66-2.67-14.42-13.98.75-35.49.3-71,.25-106.5,0-4.98,1.49-11.33-6.71-11.37-25.51-.15-51.03-.14-76.55.02-4.48.03-7.5,1.38-5.42,7.34,9.09,26.1,17.22,52.53,26.71,78.48,9.89,27.04,16,55.33,27.96,81.66h140.98c4.63-8.17,1.28-17.09,2.5-25.56.39-2.74.36-4.84-.19-6.43Z"/>
      <path class="cls-1" d="m1109.73.83c-9.67-.31-12.47,2.72-12.38,12.2.44,48.13.23,96.26.16,144.39,0,3.97.02,7.8,2.48,11.18h31.6c3.33-4.08,2.41-8.92,2.41-13.57.03-43.36.18-86.71-.04-130.07-.14-27.73,4.34-23.21-24.22-24.13Z"/>
      <path class="cls-1" d="m879.89,142.27c-11.27-.02-22.54-.02-33.82,0-14.36.02-22.77,12.13-18.33,26.33h70.49c4.44-14.27-3.94-26.31-18.35-26.33Z"/>
      <path class="cls-1" d="m283.7,115.65c21.17-20.26,27.89-44.99,16.2-72.02-8.65-20.02-23.89-34.49-46.96-38.46-27.57-4.75-55.43-1.36-83.13-2.51-6.06-.27-8.31,1.12-8.26,7.7.29,49.83.24,99.67.05,149.5,0,.6,0,1.16.03,1.69,0,.04,0,.09,0,.13.23,4.45,1.61,6.36,7.7,6.46,26.06.51,26.04.83,26.43-24.45.05-4.07-1.17-8.13,4.55-10.57,17.68-7.48,45.3.15,53.07,16.85,5.49,11.88,12.51,18.68,24.46,18.67l.03.04,28.01-.74c-8.4-12.81-15.64-24.16-23.26-35.24-4.26-6.19-5.55-10.72,1.07-17.05Zm-78.21-17.03c-7.4.27-10.28-2.51-9.84-9.77.41-6.75.1-13.52.1-20.29,0-29.91,0-30.08,30.4-29.84,12.03.1,24.75-2.68,34.73,7.7,10.64,11.06,13.35,21.29,6.87,34.95-5.48,11.47-14.88,17.56-28.3,17.2-11.3-.32-22.65-.37-33.95.05Z"/>
      <path class="cls-1" d="m1173.69,1.59q-23.44,0-22.66,23.52c.03.8-.04,1.6.01,2.39.43,6.71,2.89,10.34,10.9,10.17,23.45-.49,46.92-.18,72.19-.18-27.47,43.24-54.38,85.6-82.12,129.27h123.69c21.2,0,20.49-.03,21.48-20.99.51-10.68-2.58-13.21-13.13-12.79-22.32.89-44.7.27-69.26.27,28.25-44.86,55.12-87.53,82.92-131.67h-124.02Z"/>
      <path class="cls-1" d="m859.31,61.49c-3.96,13.56-7.22,27.42-12.54,40.45-3.28,8.04-1.98,9.61,6.09,9.29,9.65-.38,30.48-.09,30.48-.09,0,0-10.75-33.63-16.79-49.71-.65-1.72-2-4.38-3.19-4.47-2.4-.18-3.36,2.17-4.05,4.52Z"/>
      <rect class="cls-1" x="618.65" y=".54" width="36.53" height="168.06" rx="2.93" ry="2.93"/>
      <circle class="cls-1" cx="375.09" cy="83.19" r="51.15"/>
      <path class="cls-1" d="m134.21,2.98H7.06C3.16,2.98,0,6.14,0,10.04v22.42c0,3.9,3.16,7.06,7.06,7.06h46.52v121.1c0,4.41,3.58,7.99,7.99,7.99h18.13c4.41,0,7.99-3.58,7.99-7.99V39.51h46.52c3.9,0,7.06-3.16,7.06-7.06V10.04c0-3.9-3.16-7.06-7.06-7.06Z"/>
    </g>
    <path class="cls-1" d="m843.1,110.84l5.23-12.93,35,13.23.24.89h-41.67l17.53-51.31,5.09,2.5s2.38,33.34,2.38,34.53-9.52,11.91-9.52,11.91l-14.29,1.19Z"/>
    <path class="cls-1" d="m755.65,142.7c9.36,0,17.42-1.57,24.17-4.72,4.79-2.23,9.73-5.41,14.83-9.53,3.72-3.01,9.13-2.7,12.48.73l5.02,5.15c3.65,3.74,3.49,9.78-.36,13.31-15.67,14.36-34.11,21.54-55.33,21.54-24.33,0-44.51-7.83-60.55-23.48-16.04-15.65-24.06-35.45-24.06-59.4s8.17-43.89,24.52-59.86c16.34-15.96,36.99-23.94,61.93-23.94,21.76,0,40.4,7.01,55.91,21.04,3.81,3.44,4.07,9.35.61,13.14l-5.11,5.59c-3.3,3.61-8.87,4.08-12.65.98-5.31-4.35-10.4-7.57-15.28-9.66-6.83-2.91-14.85-4.37-24.06-4.37-16.27,0-29.93,5.26-40.98,15.77-11.05,10.51-16.58,23.94-16.58,40.29s5.49,30.01,16.46,40.98c10.97,10.97,23.98,16.46,39.02,16.46Z"/>
    <path class="cls-1" d="m1069.3,132.27s9.52-1.19,9.52,5.95.25,30.95.25,30.95h-144.24l-.72-1.8,6.61-5.34"/>
    <polyline class="cls-1" points="1070.49 132.27 1039.73 132.67 1060.97 138.22 1072.87 135.84 1070.49 132.27"/>
  </g>
</svg>